<svg width="409" height="178" viewBox="0 0 409 178" fill="none" xmlns="http://www.w3.org/2000/svg">
<g clip-path="url(#clip0_56_38)">
<mask id="mask0_56_38" style="mask-type:luminance" maskUnits="userSpaceOnUse" x="0" y="0" width="150" height="150">
<path d="M150 0H0V150H150V0Z" fill="white"/>
</mask>
<g mask="url(#mask0_56_38)">
<path d="M16.8229 32.714L10.1709 32.5146L15.1458 53.9394L18.2851 50.6989L16.8229 32.714Z" fill="#D30404"/>
<path d="M33.2549 131.13L34.9211 138.306L55.0764 137.269L51.0146 133.075L33.2549 131.13Z" fill="#D30404"/>
<path d="M20.0156 22.3555L22.0065 46.8424L41.6864 26.5304L20.0156 22.3555Z" fill="#D30404"/>
<path d="M46.3741 128.283L25.8926 107.142L27.3766 126.323L46.3741 128.283Z" fill="#D30404"/>
<path d="M105.139 28.0651L118.912 42.2818L133.543 35.8608C137.79 33.9986 141.19 30.5348 143.049 26.1753L150 9.89062L105.139 28.0651Z" fill="#D30404"/>
<path d="M137.379 39.4365L120.563 44.0113L129.572 53.3098C132.145 50.1488 134.33 46.578 136.014 42.6348L137.379 39.4365Z" fill="#D30404"/>
<path d="M34.1081 63.8193L37.5501 75.7236C37.6084 75.8743 37.8436 76.7243 37.8436 76.8766H37.9031C38.2861 75.4808 40.6691 67.2508 41.7564 63.8193H50.7884V66.5221H50.3176C48.8179 66.5221 48.8179 66.7651 48.8179 68.1918V80.6111C48.8179 81.8871 48.8179 82.1898 50.2299 82.1898H50.7884V84.8926H42.5219V82.1898H43.0506C44.4344 82.1898 44.4344 81.8563 44.4344 80.6111V66.5221H44.3749L39.3151 83.6488H35.7854L30.9014 66.5221H30.8434V80.7323C30.8434 82.1608 31.1366 82.1898 32.2836 82.1898H32.7541V84.8926H24.9883V82.1898H25.5186C26.9886 82.1898 26.9886 81.8563 26.9886 80.6111V68.0103C26.9886 66.8558 26.8709 66.5221 25.5186 66.5221H24.9883V63.8193H34.1081Z" fill="#D30404"/>
<path d="M53.1758 84.8926V82.1898H53.7938C55.176 82.1898 55.176 81.7348 55.176 80.7631V67.8873C55.176 67.0371 55.176 66.5221 53.8818 66.5221H53.1758V63.8193H68.7373V70.0136H65.3548V68.3441C65.3548 67.4938 65.267 67.0678 64.0903 67.0678H59.677V80.7631C59.677 81.7656 59.677 82.1898 61.031 82.1898H61.9128V84.8926H53.1758Z" fill="#D30404"/>
<path d="M90.0154 82.1813C93.6929 82.1813 94.5164 77.7781 94.5164 74.0438C94.5164 72.6771 94.5164 66.5119 90.0749 66.5119C86.8964 66.5119 85.4562 69.8221 85.4562 74.4681C85.4562 78.2331 86.3977 82.1813 90.0154 82.1813ZM79.1604 63.8109V66.5119H78.4544C77.2777 66.5119 77.1302 66.907 77.1302 67.8787V71.9176H80.9254C81.7489 66.5736 85.0437 63.1729 90.1629 63.1729C96.3112 63.1729 99.2827 67.7881 99.2827 73.9823C99.2827 80.4193 96.1057 85.5221 89.9557 85.5221C84.1022 85.5221 81.0429 81.1188 80.7779 75.4395H77.1302V80.9665C77.1302 81.574 77.1302 82.1813 78.4544 82.1813H79.1604V84.8841H70.6289V82.1813H71.3349C72.6292 82.1813 72.6292 81.7261 72.6292 80.7239V67.9692C72.6292 66.9685 72.5694 66.5119 71.3349 66.5119H70.6289V63.8109H79.1604Z" fill="#D30404"/>
<path d="M106.709 75.6917H111.651L109.21 68.3119H109.15L106.709 75.6917ZM111.916 63.5752L117.417 80.1255C118.064 82.0687 118.417 82.1902 119.271 82.1902H119.742V84.8929H111.268V82.1902H112.122C112.622 82.1902 113.123 82.1902 113.123 81.5522C113.123 81.3092 112.917 80.7019 112.857 80.4899L112.327 78.8187H106.003L105.415 80.5189C105.385 80.6404 105.209 81.2187 105.209 81.4614C105.209 82.0379 105.708 82.1902 106.326 82.1902H107.002V84.8929H99.3838V82.1902C100.708 82.1902 101.061 82.0687 101.59 80.4592L107.327 63.5752H111.916Z" fill="#D30404"/>
<path d="M95.7357 120.83L72.6608 144.648L5.18512 74.9993L72.6608 5.3521L140.136 74.9993L114.399 101.559C115.179 102.658 115.69 103.952 115.924 105.347L145.322 74.9993L72.6608 0L0 74.9993L72.6608 150L91.87 130.172L95.7357 120.83Z" fill="#D30404"/>
<path d="M130.424 95.915C130.405 97.9475 130.15 99.9848 129.574 102.015C128.477 105.871 125.507 109.884 121.557 110.979C120.959 111.144 120.313 111.222 119.643 111.222C117.13 111.222 114.257 110.125 112.17 108.396C112.312 107.913 112.388 107.403 112.388 106.874C112.388 103.988 110.123 101.648 107.327 101.648C104.531 101.648 102.264 103.988 102.264 106.874C102.264 108.406 102.908 109.781 103.926 110.736L93.5762 135.754H121.078L112.702 115.51C114.607 116.35 116.634 116.88 118.614 117.058C118.973 117.092 119.334 117.107 119.69 117.107C125.205 117.107 130.306 113.322 133.116 108.525C136.499 102.751 136.984 96.5193 135.823 90.3428L130.424 95.915Z" fill="#D30404"/>
</g>
</g>
<path d="M152.818 65.7273H155.591V84.0455H155.818L168.545 65.7273H171.273V89H168.455V70.7273H168.227L155.545 89H152.818V65.7273ZM176.912 89V65.7273H179.73V76.0909H192.139V65.7273H194.957V89H192.139V78.5909H179.73V89H176.912ZM219.327 73H216.509C216.342 72.1894 216.05 71.4773 215.634 70.8636C215.224 70.25 214.724 69.7348 214.134 69.3182C213.55 68.8939 212.902 68.5758 212.19 68.3636C211.478 68.1515 210.736 68.0455 209.963 68.0455C208.554 68.0455 207.277 68.4015 206.134 69.1136C204.997 69.8258 204.092 70.875 203.418 72.2614C202.751 73.6477 202.418 75.3485 202.418 77.3636C202.418 79.3788 202.751 81.0795 203.418 82.4659C204.092 83.8523 204.997 84.9015 206.134 85.6136C207.277 86.3258 208.554 86.6818 209.963 86.6818C210.736 86.6818 211.478 86.5758 212.19 86.3636C212.902 86.1515 213.55 85.8371 214.134 85.4205C214.724 84.9962 215.224 84.4773 215.634 83.8636C216.05 83.2424 216.342 82.5303 216.509 81.7273H219.327C219.115 82.9167 218.728 83.9811 218.168 84.9205C217.607 85.8598 216.91 86.6591 216.077 87.3182C215.243 87.9697 214.308 88.4659 213.27 88.8068C212.24 89.1477 211.137 89.3182 209.963 89.3182C207.978 89.3182 206.213 88.8333 204.668 87.8636C203.122 86.8939 201.906 85.5152 201.02 83.7273C200.134 81.9394 199.69 79.8182 199.69 77.3636C199.69 74.9091 200.134 72.7879 201.02 71C201.906 69.2121 203.122 67.8333 204.668 66.8636C206.213 65.8939 207.978 65.4091 209.963 65.4091C211.137 65.4091 212.24 65.5795 213.27 65.9205C214.308 66.2614 215.243 66.7614 216.077 67.4205C216.91 68.072 217.607 68.8674 218.168 69.8068C218.728 70.7386 219.115 71.803 219.327 73ZM222.608 68.2273V65.7273H240.062V68.2273H232.744V89H229.926V68.2273H222.608ZM244.412 65.7273H247.185V84.0455H247.412L260.139 65.7273H262.866V89H260.048V70.7273H259.821L247.139 89H244.412V65.7273ZM267.233 68.2273V65.7273H284.688V68.2273H277.369V89H274.551V68.2273H267.233ZM290.264 89.3182V86.6818H291.719C292.279 86.6818 292.749 86.572 293.128 86.3523C293.514 86.1326 293.832 85.8485 294.082 85.5C294.34 85.1515 294.552 84.7879 294.719 84.4091L295.082 83.5455L287.037 65.7273H290.082L296.491 80.1818L302.355 65.7273H305.355L297.31 85.2273C296.991 85.9545 296.628 86.6288 296.219 87.25C295.817 87.8712 295.268 88.3712 294.571 88.75C293.882 89.1288 292.946 89.3182 291.764 89.3182H290.264ZM309.202 68.2273V65.7273H326.656V68.2273H319.338V89H316.52V68.2273H309.202ZM152.818 128V104.727H166.864V107.227H155.636V114.5H161.545C163.212 114.5 164.617 114.773 165.761 115.318C166.913 115.864 167.784 116.633 168.375 117.625C168.973 118.617 169.273 119.788 169.273 121.136C169.273 122.485 168.973 123.674 168.375 124.705C167.784 125.735 166.913 126.542 165.761 127.125C164.617 127.708 163.212 128 161.545 128H152.818ZM155.636 125.545H161.545C162.606 125.545 163.504 125.333 164.239 124.909C164.981 124.477 165.542 123.924 165.92 123.25C166.307 122.568 166.5 121.848 166.5 121.091C166.5 119.977 166.072 119.019 165.216 118.216C164.36 117.405 163.136 117 161.545 117H155.636V125.545ZM173.912 104.727H176.685V123.045H176.912L189.639 104.727H192.366V128H189.548V109.727H189.321L176.639 128H173.912V104.727ZM205.46 128.318C203.96 128.318 202.623 128.061 201.449 127.545C200.282 127.03 199.354 126.314 198.665 125.398C197.983 124.473 197.612 123.402 197.551 122.182H200.415C200.475 122.932 200.733 123.58 201.188 124.125C201.642 124.663 202.237 125.08 202.972 125.375C203.706 125.67 204.521 125.818 205.415 125.818C206.415 125.818 207.301 125.644 208.074 125.295C208.847 124.947 209.453 124.462 209.892 123.841C210.331 123.22 210.551 122.5 210.551 121.682C210.551 120.826 210.339 120.072 209.915 119.42C209.491 118.761 208.869 118.246 208.051 117.875C207.233 117.504 206.233 117.318 205.051 117.318H203.188V114.818H205.051C205.975 114.818 206.786 114.652 207.483 114.318C208.188 113.985 208.737 113.515 209.131 112.909C209.532 112.303 209.733 111.591 209.733 110.773C209.733 109.985 209.559 109.299 209.21 108.716C208.862 108.133 208.369 107.678 207.733 107.352C207.104 107.027 206.362 106.864 205.506 106.864C204.703 106.864 203.945 107.011 203.233 107.307C202.528 107.595 201.953 108.015 201.506 108.568C201.059 109.114 200.816 109.773 200.778 110.545H198.051C198.097 109.326 198.464 108.258 199.153 107.341C199.843 106.417 200.744 105.697 201.858 105.182C202.979 104.667 204.21 104.409 205.551 104.409C206.991 104.409 208.225 104.701 209.256 105.284C210.286 105.86 211.078 106.621 211.631 107.568C212.184 108.515 212.46 109.538 212.46 110.636C212.46 111.947 212.116 113.064 211.426 113.989C210.744 114.913 209.816 115.553 208.642 115.909V116.091C210.112 116.333 211.259 116.958 212.085 117.966C212.911 118.966 213.324 120.205 213.324 121.682C213.324 122.947 212.979 124.083 212.29 125.091C211.608 126.091 210.676 126.879 209.494 127.455C208.313 128.03 206.968 128.318 205.46 128.318ZM218.381 128V104.727H221.199V115.091H233.608V104.727H236.426V128H233.608V117.591H221.199V128H218.381ZM242.068 128V104.727H256.114V107.227H244.886V115.091H255.386V117.591H244.886V125.5H256.295V128H242.068ZM279.92 112H277.102C276.936 111.189 276.644 110.477 276.227 109.864C275.818 109.25 275.318 108.735 274.727 108.318C274.144 107.894 273.496 107.576 272.784 107.364C272.072 107.152 271.33 107.045 270.557 107.045C269.148 107.045 267.871 107.402 266.727 108.114C265.591 108.826 264.686 109.875 264.011 111.261C263.345 112.648 263.011 114.348 263.011 116.364C263.011 118.379 263.345 120.08 264.011 121.466C264.686 122.852 265.591 123.902 266.727 124.614C267.871 125.326 269.148 125.682 270.557 125.682C271.33 125.682 272.072 125.576 272.784 125.364C273.496 125.152 274.144 124.837 274.727 124.42C275.318 123.996 275.818 123.477 276.227 122.864C276.644 122.242 276.936 121.53 277.102 120.727H279.92C279.708 121.917 279.322 122.981 278.761 123.92C278.201 124.86 277.504 125.659 276.67 126.318C275.837 126.97 274.902 127.466 273.864 127.807C272.833 128.148 271.731 128.318 270.557 128.318C268.572 128.318 266.807 127.833 265.261 126.864C263.716 125.894 262.5 124.515 261.614 122.727C260.727 120.939 260.284 118.818 260.284 116.364C260.284 113.909 260.727 111.788 261.614 110C262.5 108.212 263.716 106.833 265.261 105.864C266.807 104.894 268.572 104.409 270.557 104.409C271.731 104.409 272.833 104.58 273.864 104.92C274.902 105.261 275.837 105.761 276.67 106.42C277.504 107.072 278.201 107.867 278.761 108.807C279.322 109.739 279.708 110.803 279.92 112ZM294.111 115.114V117.614H283.929V115.114H294.111ZM316.602 104.727V128H313.784V107.227H302.057V128H299.239V104.727H316.602ZM322.287 128V104.727H330.151C331.976 104.727 333.469 105.057 334.628 105.716C335.795 106.367 336.658 107.25 337.219 108.364C337.779 109.477 338.06 110.72 338.06 112.091C338.06 113.462 337.779 114.708 337.219 115.83C336.666 116.951 335.81 117.845 334.651 118.511C333.491 119.17 332.007 119.5 330.196 119.5H324.56V117H330.105C331.355 117 332.359 116.784 333.116 116.352C333.874 115.92 334.423 115.337 334.764 114.602C335.113 113.86 335.287 113.023 335.287 112.091C335.287 111.159 335.113 110.326 334.764 109.591C334.423 108.856 333.87 108.28 333.105 107.864C332.34 107.439 331.325 107.227 330.06 107.227H325.105V128H322.287ZM341.179 128H338.224L346.77 104.727H349.679L358.224 128H355.27L348.315 108.409H348.134L341.179 128ZM342.27 118.909H354.179V121.409H342.27V118.909ZM361.849 128V104.727H369.986C371.607 104.727 372.944 105.008 373.997 105.568C375.05 106.121 375.834 106.867 376.349 107.807C376.865 108.739 377.122 109.773 377.122 110.909C377.122 111.909 376.944 112.735 376.588 113.386C376.24 114.038 375.777 114.553 375.202 114.932C374.634 115.311 374.016 115.591 373.349 115.773V116C374.062 116.045 374.777 116.295 375.497 116.75C376.217 117.205 376.819 117.856 377.304 118.705C377.789 119.553 378.031 120.591 378.031 121.818C378.031 122.985 377.766 124.034 377.236 124.966C376.705 125.898 375.868 126.636 374.724 127.182C373.58 127.727 372.092 128 370.259 128H361.849ZM364.668 125.5H370.259C372.099 125.5 373.406 125.144 374.179 124.432C374.959 123.712 375.349 122.841 375.349 121.818C375.349 121.03 375.149 120.303 374.747 119.636C374.346 118.962 373.774 118.424 373.031 118.023C372.289 117.614 371.41 117.409 370.395 117.409H364.668V125.5ZM364.668 114.955H369.895C370.743 114.955 371.509 114.788 372.19 114.455C372.88 114.121 373.425 113.652 373.827 113.045C374.236 112.439 374.44 111.727 374.44 110.909C374.44 109.886 374.084 109.019 373.372 108.307C372.66 107.587 371.531 107.227 369.986 107.227H364.668V114.955ZM383.616 128H380.662L389.207 104.727H392.116L400.662 128H397.707L390.753 108.409H390.571L383.616 128ZM384.707 118.909H396.616V121.409H384.707V118.909Z" fill="#CD0F0F"/>
<defs>
<clipPath id="clip0_56_38">
<rect width="150" height="150" fill="white"/>
</clipPath>
</defs>
</svg>
