<svg width="150" height="150" viewBox="0 0 150 150" fill="none" xmlns="http://www.w3.org/2000/svg">
<mask id="mask0_48_18" style="mask-type:luminance" maskUnits="userSpaceOnUse" x="0" y="0" width="150" height="150">
<path d="M150 0H0V150H150V0Z" fill="white"/>
</mask>
<g mask="url(#mask0_48_18)">
<path d="M16.8229 32.7139L10.1709 32.5146L15.1458 53.9394L18.2851 50.6989L16.8229 32.7139Z" fill="#D30404"/>
<path d="M33.2549 131.13L34.9211 138.306L55.0764 137.269L51.0146 133.075L33.2549 131.13Z" fill="#D30404"/>
<path d="M20.0156 22.3555L22.0065 46.8424L41.6864 26.5304L20.0156 22.3555Z" fill="#D30404"/>
<path d="M46.3741 128.283L25.8926 107.142L27.3766 126.323L46.3741 128.283Z" fill="#D30404"/>
<path d="M105.139 28.0651L118.912 42.2818L133.543 35.8608C137.79 33.9986 141.19 30.5348 143.049 26.1753L150 9.89062L105.139 28.0651Z" fill="#D30404"/>
<path d="M137.379 39.4365L120.563 44.0113L129.572 53.3098C132.145 50.1488 134.33 46.578 136.014 42.6348L137.379 39.4365Z" fill="#D30404"/>
<path d="M34.1081 63.8193L37.5501 75.7236C37.6084 75.8743 37.8436 76.7243 37.8436 76.8766H37.9031C38.2861 75.4808 40.6691 67.2508 41.7564 63.8193H50.7884V66.5221H50.3176C48.8179 66.5221 48.8179 66.7651 48.8179 68.1918V80.6111C48.8179 81.8871 48.8179 82.1898 50.2299 82.1898H50.7884V84.8926H42.5219V82.1898H43.0506C44.4344 82.1898 44.4344 81.8563 44.4344 80.6111V66.5221H44.3749L39.3151 83.6488H35.7854L30.9014 66.5221H30.8434V80.7323C30.8434 82.1608 31.1366 82.1898 32.2836 82.1898H32.7541V84.8926H24.9883V82.1898H25.5186C26.9886 82.1898 26.9886 81.8563 26.9886 80.6111V68.0103C26.9886 66.8558 26.8709 66.5221 25.5186 66.5221H24.9883V63.8193H34.1081Z" fill="#D30404"/>
<path d="M53.1758 84.8926V82.1898H53.7938C55.176 82.1898 55.176 81.7348 55.176 80.7631V67.8873C55.176 67.0371 55.176 66.5221 53.8818 66.5221H53.1758V63.8193H68.7373V70.0136H65.3548V68.3441C65.3548 67.4938 65.267 67.0678 64.0903 67.0678H59.677V80.7631C59.677 81.7656 59.677 82.1898 61.031 82.1898H61.9128V84.8926H53.1758Z" fill="#D30404"/>
<path d="M90.0154 82.1814C93.6929 82.1814 94.5164 77.7781 94.5164 74.0438C94.5164 72.6771 94.5164 66.5119 90.0749 66.5119C86.8964 66.5119 85.4562 69.8221 85.4562 74.4681C85.4562 78.2331 86.3977 82.1814 90.0154 82.1814ZM79.1604 63.8109V66.5119H78.4544C77.2777 66.5119 77.1302 66.9071 77.1302 67.8788V71.9176H80.9254C81.7489 66.5736 85.0437 63.1729 90.1629 63.1729C96.3112 63.1729 99.2827 67.7881 99.2827 73.9823C99.2827 80.4193 96.1057 85.5221 89.9557 85.5221C84.1022 85.5221 81.0429 81.1189 80.7779 75.4396H77.1302V80.9666C77.1302 81.5741 77.1302 82.1814 78.4544 82.1814H79.1604V84.8841H70.6289V82.1814H71.3349C72.6292 82.1814 72.6292 81.7261 72.6292 80.7239V67.9693C72.6292 66.9686 72.5694 66.5119 71.3349 66.5119H70.6289V63.8109H79.1604Z" fill="#D30404"/>
<path d="M106.709 75.6917H111.651L109.21 68.3119H109.15L106.709 75.6917ZM111.916 63.5752L117.417 80.1255C118.064 82.0687 118.417 82.1902 119.271 82.1902H119.742V84.8929H111.268V82.1902H112.122C112.622 82.1902 113.123 82.1902 113.123 81.5522C113.123 81.3092 112.917 80.7019 112.857 80.4899L112.327 78.8187H106.003L105.415 80.5189C105.385 80.6404 105.209 81.2187 105.209 81.4614C105.209 82.0379 105.708 82.1902 106.326 82.1902H107.002V84.8929H99.3838V82.1902C100.708 82.1902 101.061 82.0687 101.59 80.4592L107.327 63.5752H111.916Z" fill="#D30404"/>
<path d="M95.7357 120.83L72.6608 144.648L5.18512 74.9993L72.6608 5.3521L140.136 74.9993L114.399 101.559C115.179 102.658 115.69 103.952 115.924 105.347L145.322 74.9993L72.6608 0L0 74.9993L72.6608 150L91.87 130.172L95.7357 120.83Z" fill="#D30404"/>
<path d="M130.424 95.915C130.405 97.9475 130.15 99.9848 129.574 102.015C128.477 105.871 125.507 109.884 121.557 110.979C120.959 111.144 120.313 111.222 119.643 111.222C117.13 111.222 114.257 110.125 112.17 108.396C112.312 107.913 112.388 107.403 112.388 106.874C112.388 103.988 110.123 101.648 107.327 101.648C104.531 101.648 102.264 103.988 102.264 106.874C102.264 108.406 102.908 109.781 103.926 110.736L93.5762 135.754H121.078L112.702 115.51C114.607 116.35 116.634 116.88 118.614 117.058C118.973 117.092 119.334 117.107 119.69 117.107C125.205 117.107 130.306 113.322 133.116 108.525C136.499 102.751 136.984 96.5193 135.823 90.3428L130.424 95.915Z" fill="#D30404"/>
</g>
</svg>
